<svg width="32" height="32" viewBox="0 0 32 32" fill="none" xmlns="http://www.w3.org/2000/svg">
  <!-- Fond principal -->
  <rect width="32" height="32" rx="6" fill="#0a0a0a"/>
  
  <!-- Bordure cybersécurité -->
  <rect x="1" y="1" width="30" height="30" rx="5" stroke="#00ff41" stroke-width="1" fill="none"/>
  
  <!-- Lettre T stylisée -->
  <g transform="translate(8, 6)">
    <!-- Barre horizontale du T -->
    <rect x="0" y="0" width="16" height="3" rx="1.5" fill="#00ff41"/>
    
    <!-- Barre verticale du T -->
    <rect x="6.5" y="0" width="3" height="20" rx="1.5" fill="#00ff41"/>
    
    <!-- Effet de brillance sur le T -->
    <rect x="1" y="1" width="14" height="1" rx="0.5" fill="#00ff41" opacity="0.6"/>
    <rect x="7" y="1" width="1" height="18" rx="0.5" fill="#00ff41" opacity="0.6"/>
  </g>
  
  <!-- Points de données autour du T -->
  <circle cx="6" cy="6" r="1" fill="#00ff41" opacity="0.8">
    <animate attributeName="opacity" values="0.8;0.3;0.8" dur="2s" repeatCount="indefinite"/>
  </circle>
  <circle cx="26" cy="8" r="1" fill="#00ff41" opacity="0.6">
    <animate attributeName="opacity" values="0.6;0.2;0.6" dur="2.5s" repeatCount="indefinite"/>
  </circle>
  <circle cx="4" cy="26" r="1" fill="#00ff41" opacity="0.7">
    <animate attributeName="opacity" values="0.7;0.2;0.7" dur="1.8s" repeatCount="indefinite"/>
  </circle>
  <circle cx="28" cy="26" r="1" fill="#00ff41" opacity="0.5">
    <animate attributeName="opacity" values="0.5;0.1;0.5" dur="3s" repeatCount="indefinite"/>
  </circle>
  
  <!-- Lignes de connexion -->
  <line x1="6" y1="6" x2="8" y2="8" stroke="#00ff41" stroke-width="0.5" opacity="0.4"/>
  <line x1="26" y1="8" x2="24" y2="10" stroke="#00ff41" stroke-width="0.5" opacity="0.3"/>
  <line x1="4" y1="26" x2="6" y2="24" stroke="#00ff41" stroke-width="0.5" opacity="0.4"/>
  <line x1="28" y1="26" x2="26" y2="24" stroke="#00ff41" stroke-width="0.5" opacity="0.3"/>
</svg>
